HIERARCHY
ROOT Hips
{
  OFFSET 5.80788e-005 67.184 3.4734
  CHANNELS 6 Xposition Yposition Zposition Zrotation Xrotation Yrotation
  JOINT Chest
  {
    OFFSET 0 8.7983 -4.7612
    CHANNELS 3 Zrotation Xrotation Yrotation
    JOINT Chest2
    {
      OFFSET 0 8.0291 0.4195
      CHANNELS 3 Zrotation Xrotation Yrotation
      JOINT Chest3
      {
        OFFSET 0 9.9351 -2.2114
        CHANNELS 3 Zrotation Xrotation Yrotation
        JOINT Neck
        {
          OFFSET 0 22.3885 -0.4656
          CHANNELS 3 Zrotation Xrotation Yrotation
          JOINT Head
          {
            OFFSET -0.0001 12.643 3.4389
            CHANNELS 3 Zrotation Xrotation Yrotation
            End Site
            {
              OFFSET 0.0001 17.6655 0.5274
            }
          }
        }
        JOINT LeftCollar
        {
          OFFSET 2.2603 21.606 7.4023
          CHANNELS 3 Zrotation Xrotation Yrotation
          JOINT LeftShoulder
          {
            OFFSET 13.5163 -1.1332 -5.0146
            CHANNELS 3 Zrotation Xrotation Yrotation
            JOINT LeftElbow
            {
              OFFSET -0.0995 -28.05 -0.2431
              CHANNELS 3 Zrotation Xrotation Yrotation
              JOINT LeftWrist
              {
                OFFSET 0.0679 -23.3996 -0.1402
                CHANNELS 3 Zrotation Xrotation Yrotation
                JOINT LeftFinger1
                {
                  OFFSET 0.7932 -9.069 2.5189
                  CHANNELS 3 Zrotation Xrotation Yrotation
                  JOINT LeftFinger11
                  {
                    OFFSET -0.8272 -3.3923 0.5977
                    CHANNELS 3 Zrotation Xrotation Yrotation
                    JOINT LeftFinger12
                    {
                      OFFSET -0.5649 -2.3158 0.4082
                      CHANNELS 3 Zrotation Xrotation Yrotation
                      End Site
                      {
                        OFFSET -0.4919 -1.6479 0.2673
                      }
                    }
                  }
                }
                JOINT LeftFinger2
                {
                  OFFSET 0.9159 -9.2044 0.2193
                  CHANNELS 3 Zrotation Xrotation Yrotation
                  JOINT LeftFinger21
                  {
                    OFFSET 0.0117 -4.1944 -0.0248
                    CHANNELS 3 Zrotation Xrotation Yrotation
                    JOINT LeftFinger22
                    {
                      OFFSET 0.0071 -2.3249 -0.0142
                      CHANNELS 3 Zrotation Xrotation Yrotation
                      End Site
                      {
                        OFFSET -0.1475 -2.0882 0.0028
                      }
                    }
                  }
                }
                JOINT LeftFinger3
                {
                  OFFSET 0.6113 -8.7231 -2.0637
                  CHANNELS 3 Zrotation Xrotation Yrotation
                  JOINT LeftFinger31
                  {
                    OFFSET -0.1927 -3.8059 -0.2383
                    CHANNELS 3 Zrotation Xrotation Yrotation
                    JOINT LeftFinger32
                    {
                      OFFSET -0.1091 -2.1688 -0.1362
                      CHANNELS 3 Zrotation Xrotation Yrotation
                      End Site
                      {
                        OFFSET -0.2358 -1.9176 -0.0906
                      }
                    }
                  }
                }
                JOINT LeftFinger4
                {
                  OFFSET -0.6151 -8.0947 -3.5641
                  CHANNELS 3 Zrotation Xrotation Yrotation
                  JOINT LeftFinger41
                  {
                    OFFSET -0.4882 -2.341 -0.6462
                    CHANNELS 3 Zrotation Xrotation Yrotation
                    JOINT LeftFinger42
                    {
                      OFFSET -0.3575 -1.7167 -0.4742
                      CHANNELS 3 Zrotation Xrotation Yrotation
                      End Site
                      {
                        OFFSET -0.4187 -1.5237 -0.3496
                      }
                    }
                  }
                }
                JOINT LeftFinger0
                {
                  OFFSET -1.42 -1.8761 1.4223
                  CHANNELS 3 Zrotation Xrotation Yrotation
                  JOINT LeftFinger01
                  {
                    OFFSET -1.1471 -3.4929 2.6334
                    CHANNELS 3 Zrotation Xrotation Yrotation
                    JOINT LeftFinger02
                    {
                      OFFSET -0.823 -2.3 1.6571
                      CHANNELS 3 Zrotation Xrotation Yrotation
                      End Site
                      {
                        OFFSET -0.5822 -1.6914 1.1582
                      }
                    }
                  }
                }
              }
            }
          }
        }
        JOINT RightCollar
        {
          OFFSET -2.2603 21.606 7.4023
          CHANNELS 3 Zrotation Xrotation Yrotation
          JOINT RightShoulder
          {
            OFFSET -13.5187 -1.1334 -5.0155
            CHANNELS 3 Zrotation Xrotation Yrotation
            JOINT RightElbow
            {
              OFFSET 0.0994 -28.0499 -0.2431
              CHANNELS 3 Zrotation Xrotation Yrotation
              JOINT RightWrist
              {
                OFFSET -0.0679 -23.3996 -0.1402
                CHANNELS 3 Zrotation Xrotation Yrotation
                JOINT RightFinger1
                {
                  OFFSET -0.7932 -9.0691 2.5189
                  CHANNELS 3 Zrotation Xrotation Yrotation
                  JOINT RightFinger11
                  {
                    OFFSET 0.8272 -3.3923 0.5977
                    CHANNELS 3 Zrotation Xrotation Yrotation
                    JOINT RightFinger12
                    {
                      OFFSET 0.565 -2.3158 0.4082
                      CHANNELS 3 Zrotation Xrotation Yrotation
                      End Site
                      {
                        OFFSET 0.4919 -1.6479 0.2673
                      }
                    }
                  }
                }
                JOINT RightFinger2
                {
                  OFFSET -0.916 -9.2044 0.2193
                  CHANNELS 3 Zrotation Xrotation Yrotation
                  JOINT RightFinger21
                  {
                    OFFSET -0.0117 -4.1944 -0.0248
                    CHANNELS 3 Zrotation Xrotation Yrotation
                    JOINT RightFinger22
                    {
                      OFFSET -0.0071 -2.3249 -0.0142
                      CHANNELS 3 Zrotation Xrotation Yrotation
                      End Site
                      {
                        OFFSET 0.1475 -2.0882 0.0028
                      }
                    }
                  }
                }
                JOINT RightFinger3
                {
                  OFFSET -0.6113 -8.7231 -2.0637
                  CHANNELS 3 Zrotation Xrotation Yrotation
                  JOINT RightFinger31
                  {
                    OFFSET 0.1927 -3.8059 -0.2383
                    CHANNELS 3 Zrotation Xrotation Yrotation
                    JOINT RightFinger32
                    {
                      OFFSET 0.1091 -2.1688 -0.1362
                      CHANNELS 3 Zrotation Xrotation Yrotation
                      End Site
                      {
                        OFFSET 0.2358 -1.9176 -0.0906
                      }
                    }
                  }
                }
                JOINT RightFinger4
                {
                  OFFSET 0.6151 -8.0947 -3.564
                  CHANNELS 3 Zrotation Xrotation Yrotation
                  JOINT RightFinger41
                  {
                    OFFSET 0.4882 -2.341 -0.6462
                    CHANNELS 3 Zrotation Xrotation Yrotation
                    JOINT RightFinger42
                    {
                      OFFSET 0.3574 -1.7166 -0.4742
                      CHANNELS 3 Zrotation Xrotation Yrotation
                      End Site
                      {
                        OFFSET 0.4187 -1.5237 -0.3496
                      }
                    }
                  }
                }
                JOINT RightFinger0
                {
                  OFFSET 1.4199 -1.8761 1.4221
                  CHANNELS 3 Zrotation Xrotation Yrotation
                  JOINT RightFinger01
                  {
                    OFFSET 1.1472 -3.4929 2.6336
                    CHANNELS 3 Zrotation Xrotation Yrotation
                    JOINT RightFinger02
                    {
                      OFFSET 0.8229 -2.3 1.6571
                      CHANNELS 3 Zrotation Xrotation Yrotation
                      End Site
                      {
                        OFFSET 0.5822 -1.6914 1.1582
                      }
                    }
                  }
                }
              }
            }
          }
        }
      }
    }
  }
  JOINT RightHip
  {
    OFFSET -9.412 3.9771 -0.7758
    CHANNELS 3 Zrotation Xrotation Yrotation
    JOINT RightKnee
    {
      OFFSET -0.7531 -40.938 0
      CHANNELS 3 Zrotation Xrotation Yrotation
      JOINT RightAnkle
      {
        OFFSET 0 -40.1986 0
        CHANNELS 3 Zrotation Xrotation Yrotation
        JOINT RightToe
        {
          OFFSET 0 -4.4182 9.239
          CHANNELS 3 Zrotation Xrotation Yrotation
          End Site
          {
            OFFSET 0 0 6.1981
          }
        }
      }
    }
  }
  JOINT LeftHip
  {
    OFFSET 9.4119 3.9773 -0.7758
    CHANNELS 3 Zrotation Xrotation Yrotation
    JOINT LeftKnee
    {
      OFFSET 0.7532 -40.9383 0
      CHANNELS 3 Zrotation Xrotation Yrotation
      JOINT LeftAnkle
      {
        OFFSET 0 -40.1986 0
        CHANNELS 3 Zrotation Xrotation Yrotation
        JOINT LeftToe
        {
          OFFSET 0 -4.4182 9.239
          CHANNELS 3 Zrotation Xrotation Yrotation
          End Site
          {
            OFFSET 0 0 6.1981
          }
        }
      }
    }
  }
}
MOTION
Frames:	4
Frame Time:	0.0333333
5.80788e-005 67.184 3.4734 0 0 -0 0 0 -0 0 0 -0 0 0 -0 0 0 -0 0 0 -0 0 0 -12.5014 88.1196 14.2451 10.6914 -0.00160068 -0.00239207 0.000740045 -8.4365e-005 7.00714e-005 -9.52055e-007 9.93923e-017 -1.98785e-016 -1.59028e-015 9.93923e-017 -5.96354e-016 -1.59028e-015 -9.93923e-017 -5.96354e-016 -1.59028e-015 9.93923e-017 -1.98785e-016 -1.59028e-015 -0.0128176 0.00232552 8.52707e-005 9.93923e-017 5.96354e-016 -0 9.93923e-017 -1.98785e-016 -1.59028e-015 -0.0160551 0.00299681 0.000857156 -2.48481e-016 0 3.18055e-015 9.93923e-017 -1.98785e-016 -1.59028e-015 -0.0125865 0.0031206 0.00282719 0 1.98785e-016 -0 9.93923e-017 -1.98785e-016 -1.59028e-015 9.93923e-017 -5.96354e-016 -1.59028e-015 -9.93923e-017 -5.96354e-016 -1.59028e-015 -0.865644 0.16582 7.03859 -88.0329 10.2057 -10.5567 0.0015593 -0.00248883 -0.000788628 7.87605e-005 4.10553e-005 1.24965e-005 -3.97569e-016 -7.95139e-016 3.18055e-015 -1.98785e-016 -3.97569e-016 3.18055e-015 -1.98785e-016 0 3.18055e-015 -3.97569e-016 -7.95139e-016 3.18055e-015 0.0129473 0.00231697 -8.70038e-005 9.93923e-017 -7.95139e-016 1.59028e-015 -3.97569e-016 -7.95139e-016 3.18055e-015 0.0163314 0.00303369 -0.000872333 3.97569e-016 7.95139e-016 -3.18055e-015 -3.97569e-016 -7.95139e-016 3.18055e-015 0.0145763 0.00367772 -0.00326275 9.93923e-017 -3.97569e-016 -0 -3.97569e-016 -7.95139e-016 3.18055e-015 -1.98785e-016 -3.97569e-016 3.18055e-015 -1.98785e-016 0 3.18055e-015 3.42485 1.36937 -0.0640303 0.000136572 0.69354 0.00145564 -3.42573 -2.06297 -0.0607933 -3.19502e-024 0 -1.48106e-024 -3.42498 1.36123 0.0639712 -6.769e-005 0.712612 -0.0012277 3.42582 -2.07388 0.0612819 2.55305e-023 0 -2.31416e-026 
-2.7013 5.6859 25.7507 -10.2012 36.7695 -163.268 -0.36022 16.3217 -0.0225859 -0.76324 32.6434 0.0719077 -0.763231 32.6432 0.0719011 3.14887e-005 16.9684 7.1256e-006 -1.21219e-007 11.6648 -3.0792e-006 14.946 2.83974 -35.8027 31.2818 -25.6755 13.6765 -7.05945 1.35496 -1.17173 -1.71829 -24.4301 12.2174 3.97569e-016 0 -0 -3.59673e-006 1.1178e-006 4.7557e-007 2.05667e-007 -8.25471e-007 1.6192e-006 3.97569e-016 0 -0 -0.0128501 0.00232868 8.37974e-005 1.59028e-015 -2.38542e-015 -3.18055e-015 3.97569e-016 0 -0 -0.0160419 0.00299386 0.00085915 -3.17359e-006 -2.29692e-006 4.19454e-007 3.97569e-016 0 -0 -0.0126115 0.00312404 0.00283412 3.11255e-007 -1.67852e-006 1.60526e-006 3.97569e-016 0 -0 -3.59673e-006 1.1178e-006 4.7557e-007 2.05667e-007 -8.25471e-007 1.6192e-006 -14.6587 4.03186 31.3868 -30.0429 -26.6519 -9.30931 6.58462 1.25597 1.34431 1.55531 -25.1747 -14.4773 6.52329e-006 -2.20117e-006 -7.95574e-006 -1.19271e-015 -3.18055e-015 6.36111e-015 -3.97569e-016 -3.18055e-015 6.36111e-015 6.52329e-006 -2.20117e-006 -7.95574e-006 0.0129552 0.00231975 -7.65642e-005 -7.95139e-016 0 -3.18055e-015 6.52329e-006 -2.20117e-006 -7.95574e-006 0.0163404 0.00303854 -0.000864483 7.08062e-006 -8.37011e-007 -1.02696e-005 6.52329e-006 -2.20117e-006 -7.95574e-006 0.0145974 0.00368419 -0.00324944 1.59028e-015 7.95139e-016 -3.18055e-015 6.52329e-006 -2.20117e-006 -7.95574e-006 -1.19271e-015 -3.18055e-015 6.36111e-015 -3.97569e-016 -3.18055e-015 6.36111e-015 -53.3565 -32.1157 -90.627 -7.95705 44.4155 64.1506 -8.81033 31.9164 -41.1047 -2.73359e-006 2.9767e-006 -9.62526e-006 53.3243 -32.1205 90.5955 7.9163 44.4129 -64.1191 8.79627 31.9142 41.0909 3.18055e-015 5.56597e-015 6.36111e-015 
-0.783908 10.1432 22.7406 -1.23798e-014 37.3918 -180 -0.343699 14.9903 0.00159716 -0.727467 29.9803 0.10601 -0.727464 29.9801 0.106009 2.47146e-005 14.6301 3.42538e-006 4.87092e-007 10.0375 2.42774e-008 13.3538 3.80692 -34.0359 34.7744 -22.6334 13.529 -6.56957 1.26754 -1.08387 -3.00907 -21.236 10.2587 1.37873e-006 -3.06551e-006 2.7759e-006 -3.48605e-006 -3.13083e-006 -2.51846e-006 -2.30009e-006 -4.74835e-007 6.16966e-006 1.37873e-006 -3.06551e-006 2.7759e-006 -0.0128352 0.00232337 8.60631e-005 9.85317e-007 -5.82371e-006 7.54812e-006 1.37873e-006 -3.06551e-006 2.7759e-006 -0.0160556 0.00299351 0.000861768 4.12965e-006 1.46076e-006 1.27562e-006 1.37873e-006 -3.06551e-006 2.7759e-006 -0.0125919 0.00312545 0.00283545 3.07687e-007 2.8511e-006 -2.98193e-006 1.37873e-006 -3.06551e-006 2.7759e-006 -3.48605e-006 -3.13083e-006 -2.51846e-006 -2.30009e-006 -4.74835e-007 6.16966e-006 -13.2047 4.84694 29.473 -33.8231 -23.9412 -9.42453 6.13045 1.17577 1.24299 2.91208 -21.8975 -12.1597 7.95139e-016 3.18055e-015 -0 7.95139e-016 1.91287e-006 -0 1.67991e-006 5.77186e-006 -1.30556e-007 7.95139e-016 3.18055e-015 -0 0.0129912 0.00232361 -9.05376e-005 1.67998e-006 5.09026e-006 -1.30488e-007 7.95139e-016 3.18055e-015 -0 0.0163235 0.00303893 -0.000868505 8.39999e-007 3.52872e-006 -6.52353e-008 7.95139e-016 3.18055e-015 -0 0.014589 0.00368527 -0.00326708 -5.97877e-006 5.80759e-006 3.64092e-006 7.95139e-016 3.18055e-015 -0 7.95139e-016 1.91287e-006 -0 1.67991e-006 5.77186e-006 -1.30556e-007 -47.8235 -34.2734 -85.3062 -4.59867 45.6894 58.2585 -11.1632 29.9627 -36.6015 -1.65784e-006 3.39401e-006 -1.21629e-005 47.7936 -34.2743 85.2746 4.56354 45.6846 -58.2308 11.1503 29.96 36.5898 1.71026e-006 -4.0826e-006 4.51389e-006 
-0.783922 10.3823 22.1421 -1.27623e-014 39.3122 -180 -0.344024 14.7977 0.00200552 -0.727136 29.5952 0.105285 -0.727132 29.595 0.105284 2.41343e-005 13.5317 3.42977e-006 -1.36769e-007 9.26598 1.08075e-007 12.8944 4.86577 -33.8799 34.7744 -22.6334 13.529 -6.56959 1.26757 -1.08388 -4.33026 -19.7906 9.1776 -8.69702e-007 1.03657e-006 -4.61794e-006 -1.3761e-006 3.07721e-006 -2.77701e-006 8.43042e-007 -1.44038e-006 -1.02535e-007 -8.69702e-007 1.03657e-006 -4.61794e-006 -0.0127967 0.00232138 8.7321e-005 2.83802e-007 -1.39051e-006 -7.70254e-006 -8.69702e-007 1.03657e-006 -4.61794e-006 -0.016036 0.00299552 0.000849964 -7.95139e-016 -1.59028e-015 -3.18055e-015 -8.69702e-007 1.03657e-006 -4.61794e-006 -0.0125669 0.00311566 0.00282297 7.32085e-007 -3.44696e-006 -3.0334e-006 -8.69702e-007 1.03657e-006 -4.61794e-006 -1.3761e-006 3.07721e-006 -2.77701e-006 8.43042e-007 -1.44038e-006 -1.02535e-007 -12.834 5.81138 29.2525 -33.8231 -23.9412 -9.42451 6.1304 1.17577 1.24299 4.27926 -20.4199 -10.8765 2.38542e-015 -3.18055e-015 -0 -3.18055e-015 -1.59028e-015 -3.18055e-015 -1.45604e-007 -1.42697e-006 -4.65656e-006 2.38542e-015 -3.18055e-015 -0 0.0129818 0.00231459 -9.48402e-005 3.18055e-015 -3.18055e-015 6.36111e-015 2.38542e-015 -3.18055e-015 -0 0.0163463 0.00303888 -0.000881478 1.76556e-031 1.59028e-015 -6.36111e-015 2.38542e-015 -3.18055e-015 -0 0.0146029 0.00367778 -0.00327007 -5.00528e-007 -6.85572e-007 -2.94272e-006 2.38542e-015 -3.18055e-015 -0 -3.18055e-015 -1.59028e-015 -3.18055e-015 -1.45604e-007 -1.42697e-006 -4.65656e-006 -47.7203 -32.6707 -84.5945 -5.20655 46.755 58.6565 -11.9642 29.4113 -35.8263 -2.65437e-006 1.92694e-006 -9.31112e-006 47.693 -32.6719 84.5658 5.17366 46.7508 -58.6306 11.9521 29.4087 35.8152 -3.68515e-006 -2.15934e-006 -1.11501e-006 
